<svg width="1640" height="269" viewBox="0 0 1640 269" fill="none" xmlns="http://www.w3.org/2000/svg">
<g clip-path="url(#clip0_5123_3149)">
<path d="M303.066 22.1297C297.689 26.888 294.972 34.1333 294.972 43.88V225.243C294.972 234.228 297.66 241.085 303.066 245.843C308.442 250.602 317.326 253.62 329.617 254.9V262.979H225.639V254.497C237.714 253.462 246.483 250.602 252.018 245.814C257.524 241.056 260.298 234.199 260.298 225.214V49.6734L159.022 263.008H145.911L48.8902 49.6734V225.272C48.8902 234.256 51.6504 241.114 57.1706 245.872C62.6765 250.63 71.6037 253.649 83.938 254.929V263.008H0.372517V254.526C12.448 253.491 21.174 250.63 26.5505 245.843C31.927 241.085 34.644 234.228 34.644 225.243V43.88C34.644 33.8746 31.9558 26.5574 26.5505 21.9284C21.174 17.2995 12.3187 14.7406 -0.015625 14.2375V5.75586H67.7654L164.039 218.299L265.344 5.75586H329.661V14.2375C317.341 14.7694 308.485 17.3857 303.109 22.1297H303.08H303.066Z" fill="#212121"/>
<path d="M973.041 246.419C976.894 242.825 978.82 237.19 978.82 229.47V112.424C978.82 104.474 977.138 98.5657 973.818 94.7131C970.468 90.8604 964.315 88.6753 955.331 88.1722L951.104 87.7984V79.7193L1004.25 64.323H1011.19V122.472C1018.14 102.447 1026.66 87.6834 1036.8 78.1811C1046.93 68.6788 1058.3 63.9492 1070.88 63.9492C1078.07 63.9492 1084.24 64.7255 1089.37 66.2637L1084.74 101.7C1081.68 99.3851 1077.87 97.5307 1073.37 96.1219C1068.87 94.7131 1064.57 94.0087 1060.46 94.0087C1050.2 94.0087 1040.69 97.6026 1031.97 104.805C1023.24 111.993 1016.3 122.012 1011.17 134.835V229.556C1011.17 237.247 1013.85 242.839 1019.24 246.304C1024.62 249.769 1034.64 252.543 1049.28 254.584V263.066H951.09V254.584C961.886 252.802 969.203 250.085 973.041 246.491V246.448V246.419Z" fill="#212121"/>
<path d="M1124.34 246.419C1128.2 242.825 1130.12 237.19 1130.12 229.47V112.424C1130.12 104.474 1128.44 98.5657 1125.12 94.7131C1121.77 90.8604 1115.62 88.6753 1106.63 88.1722L1102.41 87.7984V79.7193L1155.55 64.323H1162.5V122.472C1169.44 102.447 1177.96 87.6834 1188.1 78.1811C1198.23 68.6788 1209.61 63.9492 1222.18 63.9492C1229.37 63.9492 1235.54 64.7255 1240.67 66.2637L1236.04 101.7C1232.97 99.3851 1229.17 97.5307 1224.67 96.1219C1220.17 94.7131 1215.87 94.0087 1211.78 94.0087C1201.51 94.0087 1192.01 97.6026 1183.28 104.805C1174.56 111.993 1167.61 122.012 1162.48 134.835V229.556C1162.48 237.247 1165.17 242.839 1170.56 246.304C1175.94 249.769 1185.96 252.543 1200.59 254.584V263.066H1102.41V254.584C1113.2 252.802 1120.52 250.085 1124.36 246.491V246.448L1124.34 246.419Z" fill="#212121"/>
<path d="M1496.89 247.41C1501.36 250.63 1508.26 252.987 1517.49 254.526V263.007H1430.09V254.526C1439.32 252.987 1446.26 250.63 1450.89 247.41C1455.52 244.218 1457.83 238.756 1457.83 231.036V112.423C1457.83 104.473 1456.09 98.4926 1452.63 94.5105C1449.15 90.5429 1443.07 88.4296 1434.34 88.1421L1430.11 87.7684V79.6893L1483.25 64.293H1490.19V107.808C1500.71 92.6705 1511.25 81.63 1521.76 74.6865C1532.27 67.7431 1543.44 64.293 1555.25 64.293C1571.69 64.293 1585.37 69.8707 1596.28 81.0406C1607.19 92.2104 1612.66 108.052 1612.66 128.595V231.036C1612.66 238.727 1614.9 244.19 1619.4 247.41C1623.87 250.63 1630.77 252.987 1640 254.526V263.007H1553.73V254.526C1562.46 252.987 1569 250.63 1573.37 247.41C1577.72 244.218 1579.91 238.756 1579.91 231.036V130.91C1579.91 116.52 1576.56 105.81 1569.9 98.737C1563.2 91.6642 1553.98 88.1421 1542.19 88.1421C1523.94 88.1421 1506.62 98.6795 1490.19 119.711V231.007C1490.19 238.698 1492.43 244.161 1496.93 247.381H1496.89V247.41Z" fill="#212121"/>
<path d="M1414.35 156.211L1414.52 156.283C1414.52 139.334 1411.76 123.938 1406.24 110.08C1400.7 96.2217 1392.44 85.1237 1381.38 76.7858C1370.34 68.4336 1356.86 64.2646 1340.95 64.2646C1323.23 64.2646 1307.45 68.563 1293.59 77.174C1279.73 85.7993 1268.87 98.1767 1261.05 114.349C1253.2 130.522 1249.3 149.512 1249.3 171.334C1249.3 188.786 1252.82 204.959 1259.9 219.852C1266.94 234.745 1276.95 246.533 1289.93 255.259C1302.88 263.985 1317.97 268.355 1335.17 268.355C1354.16 268.355 1370.66 262.979 1384.63 252.183C1398.65 241.387 1408.19 227.658 1413.33 210.982L1406.38 207.92C1390.71 230.001 1371.45 241.042 1348.61 241.042C1328.84 241.042 1312.94 233.394 1300.87 218.127C1292.86 208.007 1287.35 195.514 1284.32 180.693L1414.42 156.326L1414.32 156.211H1414.35ZM1281.62 156.326L1281.99 142.468C1283.53 122.702 1288.73 107.104 1297.59 95.6898C1306.44 84.2755 1318.69 78.5684 1334.36 78.5684C1360.57 78.5684 1375.43 97.9899 1378.97 136.79L1282.12 164.995C1281.89 162.177 1281.72 159.288 1281.62 156.326Z" fill="#212121"/>
<path d="M706.709 222.755C691.442 233.925 674.292 239.503 655.302 239.503C636.312 239.503 619.808 234.572 605.045 224.681C590.281 214.791 578.737 201.019 570.385 183.28C562.033 165.569 557.864 145.529 557.864 123.218C557.864 89.5936 565.052 63.2862 579.413 44.2673C593.774 25.2771 613.814 15.7748 639.474 15.7748C655.647 15.7748 669.059 21.0363 679.712 31.5736C688.883 40.659 695.827 52.1163 700.542 65.9744L738.335 55.1352L738.436 55.0921C733.807 39.1783 722.839 26.0965 705.516 15.8035C688.193 5.53933 667.708 0.407227 644.103 0.407227C620.498 0.407227 597.699 6.38749 578.838 18.3193C559.977 30.2654 545.343 46.6824 534.949 67.6133C524.556 88.5442 519.352 112.106 519.352 138.284C519.352 164.462 524.685 185.522 535.323 205.289C545.961 225.055 560.725 240.523 579.614 251.693C598.475 262.863 619.722 268.441 643.341 268.441C668.24 268.441 690.076 260.362 708.808 244.175C727.539 228.002 740.894 206.956 748.844 181.023L739.989 177.961C733.045 196.692 721.962 211.657 706.695 222.827V222.755H706.709Z" fill="#212121"/>
<path d="M920.4 247.87H920.443C916.504 244.65 914.534 239.187 914.534 231.496V168.603L914.477 168.502V139.779C914.477 116.16 908.367 97.6732 896.191 84.3182C883.986 70.992 866.994 64.293 845.158 64.293C831.3 64.293 818.39 66.9812 806.444 72.3721C794.498 77.7486 784.938 84.8932 777.75 93.7486C770.563 102.604 766.969 112.164 766.969 122.442C766.969 129.256 769.125 136.042 773.438 142.87L802.994 134.389L805.107 133.612C801.255 125.921 799.328 118.848 799.328 112.437C799.328 102.431 802.678 94.1511 809.334 87.5815C816.004 81.0406 824.73 77.7773 835.512 77.7773C849.902 77.7773 861.244 83.24 869.596 94.1511C877.949 105.062 882.117 119.884 882.117 138.615V143.517L855.551 150.935C824.371 159.115 801.7 166.734 787.972 176.739C774.243 186.745 767.371 200.603 767.371 218.342C767.371 232.732 772.302 244.65 782.192 254.152C792.083 263.654 804.733 268.412 820.115 268.412C833.226 268.412 845.215 264.747 856.112 257.444C867.023 250.127 875.677 239.287 882.089 224.897V238.367H882.132V263.439H938.441V254.957C930.348 253.419 924.31 251.061 920.385 247.841L920.4 247.87ZM860.957 238.353C852.475 244.261 843.505 247.208 834.002 247.208C824.5 247.208 816.421 244.06 810.512 237.778C804.604 231.496 801.657 223.216 801.657 212.923C801.657 199.812 805.884 189.562 814.351 182.116C822.832 174.669 838.013 168.933 859.016 163.255L882.132 156.584V213.699C876.468 224.236 869.438 232.43 860.957 238.339V238.353Z" fill="#212121"/>
<path d="M467.596 231.238C457.217 238.31 446.622 241.832 435.826 241.832C413.745 241.832 396.739 233.883 384.793 217.969C372.846 202.041 366.88 180.995 366.88 154.817C366.88 132.736 371.682 114.522 381.314 100.132C390.945 85.7707 403.97 78.5829 420.401 78.5829C431.197 78.5829 440.038 82.6799 446.967 90.9028C452.832 97.875 457.203 106.845 460.121 117.843L492.293 108.614C489.648 96.4662 482.302 86.0726 470.256 77.4328C458.065 68.7068 443.114 64.3223 425.389 64.3223C407.664 64.3223 391.563 69.0806 377.835 78.5829C364.106 88.0852 353.439 100.793 345.863 116.707C338.287 132.621 334.492 150.087 334.492 169.063C334.492 188.039 337.957 204.671 344.886 219.694C351.829 234.702 361.964 246.576 375.319 255.302C388.674 264.028 404.444 268.413 422.672 268.413C439.621 268.413 455.017 262.95 468.876 252.039C482.734 241.128 492.868 225.933 499.309 206.411L492.365 203.349C486.198 214.893 477.932 224.194 467.51 231.266L467.582 231.238H467.596Z" fill="#212121"/>
</g>
<defs>
<clipPath id="clip0_5123_3149">
<rect width="1640" height="268.034" fill="white" transform="translate(0 0.420898)"/>
</clipPath>
</defs>
</svg>
